<?xml version="1.0" encoding="iso-8859-1"?>
<!-- Generator: Adobe Illustrator 19.0.0, SVG Export Plug-In . SVG Version: 6.00 Build 0)  -->
<svg version="1.1" id="Layer_1" xmlns="http://www.w3.org/2000/svg" xmlns:xlink="http://www.w3.org/1999/xlink" x="0px" y="0px"
	 viewBox="0 0 512 512" style="enable-background:new 0 0 512 512;" xml:space="preserve">
<path style="fill:#FFDB57;" d="M442.956,395.431L263.339,4.704C262.022,1.838,259.155,0,256,0c-3.156,0-6.022,1.838-7.34,4.704
	L69.034,395.449c-1.061,2.309-0.975,4.982,0.234,7.216c1.209,2.235,3.397,3.771,5.909,4.148c2.378,0.357,4.609,1.008,6.63,1.938
	c54.938,25.304,113.546,38.135,174.193,38.135c60.642,0,119.25-12.831,174.189-38.134c2.065-0.949,4.292-1.607,6.622-1.956
	c2.513-0.376,4.702-1.912,5.91-4.147C443.929,400.413,444.016,397.74,442.956,395.431z"/>
<path style="fill:#FFF5CF;" d="M423.271,352.611C370.339,375.855,314.105,387.643,256,387.643
	c-58.11,0-114.343-11.787-167.273-35.032l-19.692,42.838c-1.061,2.309-0.975,4.982,0.234,7.216c1.209,2.235,3.397,3.771,5.909,4.148
	c2.378,0.357,4.609,1.008,6.63,1.938c54.938,25.304,113.546,38.135,174.193,38.135c60.642,0,119.25-12.831,174.189-38.134
	c2.065-0.949,4.292-1.607,6.622-1.956c2.513-0.376,4.702-1.912,5.91-4.147c1.209-2.235,1.296-4.909,0.234-7.217L423.271,352.611z"/>
<path style="fill:#EDBF2F;" d="M263.339,4.704C262.022,1.838,259.155,0,256,0c-3.156,0-6.022,1.838-7.34,4.704l-13.397,29.143
	L396.472,422.54c11.379-4.089,22.624-8.681,33.718-13.79c2.065-0.949,4.292-1.607,6.622-1.956c2.513-0.376,4.702-1.912,5.91-4.147
	s1.296-4.909,0.234-7.217L263.339,4.704z"/>
<path style="fill:#FFE682;" d="M442.956,395.431l-19.685-42.82c-15.858,6.964-32.014,12.89-48.425,17.789l21.626,52.141
	c5.612-2.016,11.19-4.158,16.734-6.421c0.117-0.048,0.236-0.095,0.354-0.143c2.587-1.059,5.167-2.149,7.739-3.263
	c0.43-0.186,0.86-0.375,1.289-0.562c2.54-1.109,5.075-2.237,7.6-3.401c2.065-0.949,4.292-1.607,6.622-1.956
	c2.513-0.376,4.702-1.912,5.91-4.147C443.929,400.413,444.016,397.74,442.956,395.431z"/>
<path style="fill:#F7434C;" d="M166.787,368.777c-22.925,0-41.575,18.651-41.575,41.577c0,4.221,0.634,8.394,1.885,12.401
	c0.791,2.532,2.775,4.515,5.308,5.305c19.201,5.985,38.432,10.541,57.162,13.546c0.427,0.069,0.854,0.102,1.28,0.102
	c2.17,0,4.271-0.876,5.805-2.46c7.552-7.804,11.712-18.065,11.712-28.893C208.362,387.429,189.711,368.777,166.787,368.777z"/>
<path style="fill:#F5BA3D;" d="M477.343,413.989c-9.367-20.345-33.548-29.278-53.91-19.914
	C370.624,418.397,314.292,430.729,256,430.729c-58.297,0-114.63-12.332-167.436-36.654c-5.375-2.474-11.086-3.729-16.975-3.729
	c-15.822,0-30.319,9.281-36.933,23.643c-9.369,20.349-0.435,44.533,19.914,53.91C118.11,497.162,185.881,512,256,512
	c70.108,0,137.878-14.838,201.432-44.102C477.78,458.521,486.713,434.337,477.343,413.989z"/>
<path style="fill:#EF9325;" d="M477.343,413.989c-9.367-20.345-33.548-29.278-53.91-19.914c-11.018,5.074-22.192,9.62-33.504,13.647
	c16.14-0.052,31.626,9.418,38.8,25.515c7.823,17.551,3.435,37.734-9.481,50.316c12.883-4.655,25.617-9.869,38.184-15.655
	C477.78,458.521,486.713,434.337,477.343,413.989z"/>
<g>
	<path style="fill:#F7434C;" d="M329.989,314.95c-22.925,0-41.575,18.651-41.575,41.575c0,22.925,18.651,41.577,41.575,41.577
		c22.925,0,41.575-18.651,41.575-41.577S352.914,314.95,329.989,314.95z"/>
	<path style="fill:#F7434C;" d="M251.425,241.195c-22.925,0-41.575,18.651-41.575,41.577s18.651,41.575,41.575,41.575
		S293,305.698,293,282.772S274.35,241.195,251.425,241.195z"/>
	<path style="fill:#F7434C;" d="M186.638,157.689c-3.976-1.518-8.447,0.306-10.224,4.172l-27.924,60.745
		c-1.776,3.864-0.253,8.443,3.482,10.473c6.05,3.288,12.907,5.026,19.83,5.026c22.925,0,41.575-18.65,41.575-41.575
		C213.377,179.412,202.632,163.803,186.638,157.689z"/>
	<path style="fill:#F7434C;" d="M336.555,163.973L310.1,106.425c-1.44-3.132-4.709-5.014-8.14-4.664
		c-21.333,2.123-37.419,19.906-37.419,41.366c0,22.925,18.651,41.575,41.575,41.575c10.71,0,20.893-4.088,28.675-11.51
		C337.287,170.811,337.996,167.107,336.555,163.973z"/>
</g>
<path style="fill:#00B76C;" d="M309.167,237.495h-25.35c-4.461,0-8.079-3.616-8.079-8.079s3.617-8.079,8.079-8.079h25.35
	c4.462,0,8.079,3.616,8.079,8.079S313.629,237.495,309.167,237.495z"/>
<g>
	<path style="fill:#EF9325;" d="M358.061,294.28h-25.35c-4.461,0-8.079-3.616-8.079-8.079c0-4.463,3.617-8.079,8.079-8.079h25.35
		c4.462,0,8.079,3.616,8.079,8.079C366.139,290.664,362.522,294.28,358.061,294.28z"/>
	<path style="fill:#EF9325;" d="M174.858,296.239h-25.35c-4.462,0-8.079-3.616-8.079-8.079c0-4.463,3.617-8.079,8.079-8.079h25.35
		c4.462,0,8.079,3.616,8.079,8.079C182.936,292.623,179.319,296.239,174.858,296.239z"/>
</g>
<path style="fill:#00B76C;" d="M162.183,355.53h-25.35c-4.462,0-8.079-3.616-8.079-8.079c0-4.463,3.617-8.079,8.079-8.079h25.35
	c4.462,0,8.079,3.616,8.079,8.079C170.261,351.914,166.644,355.53,162.183,355.53z"/>
<path style="fill:#EF9325;" d="M250.319,360.92h-25.35c-4.462,0-8.079-3.616-8.079-8.079s3.617-8.079,8.079-8.079h25.35
	c4.462,0,8.079,3.616,8.079,8.079S254.78,360.92,250.319,360.92z"/>
<path style="fill:#00B76C;" d="M276.775,421.697h-25.35c-4.462,0-8.079-3.617-8.079-8.079c0-4.463,3.617-8.079,8.079-8.079h25.35
	c4.462,0,8.079,3.616,8.079,8.079C284.854,418.081,281.237,421.697,276.775,421.697z"/>
<path style="fill:#EF9325;" d="M251.942,179.698h-25.35c-4.462,0-8.079-3.616-8.079-8.079c0-4.463,3.617-8.079,8.079-8.079h25.35
	c4.462,0,8.079,3.616,8.079,8.079C260.021,176.082,256.404,179.698,251.942,179.698z"/>
<path style="fill:#00B76C;" d="M256,107.586h-25.35c-4.462,0-8.079-3.616-8.079-8.079s3.617-8.079,8.079-8.079H256
	c4.462,0,8.079,3.616,8.079,8.079C264.078,103.969,260.461,107.586,256,107.586z"/>
<g>
</g>
<g>
</g>
<g>
</g>
<g>
</g>
<g>
</g>
<g>
</g>
<g>
</g>
<g>
</g>
<g>
</g>
<g>
</g>
<g>
</g>
<g>
</g>
<g>
</g>
<g>
</g>
<g>
</g>
</svg>
