<svg xmlns="http://www.w3.org/2000/svg" width="50" height="50" viewBox="0 0 50 50"><defs><clipPath id="bhi9b"><path fill="#fff" d="M4 40V23h18v17zm9-3a5.5 5.5 0 1 0 0-11 5.5 5.5 0 0 0 0 11z"/></clipPath><clipPath id="bhi9c"><path fill="#fff" d="M29 39V22h18v17zm3.5-3h11V25h-11z"/></clipPath><clipPath id="bhi9d"><path fill="#fff" d="M16.366 18.218V2.782h17.268v15.436zM19 16h12L25 5z"/></clipPath><clipPath id="bhi9a"><path d="M25 50c13.807 0 25-11.193 25-25S38.807 0 25 0 0 11.193 0 25s11.193 25 25 25z"/></clipPath></defs><g><g><g><path fill="#fff" d="M25 50c13.807 0 25-11.193 25-25S38.807 0 25 0 0 11.193 0 25s11.193 25 25 25z"/></g><g clip-path="url(#bhi9a)"><path fill="none" stroke="#13ce67" stroke-miterlimit="50" stroke-width="2" d="M25 41c8.837 0 16-7.163 16-16S33.837 9 25 9 9 16.163 9 25s7.163 16 16 16z"/></g><g clip-path="url(#bhi9a)"><path fill="#fff" d="M13 37a5.5 5.5 0 1 0 0-11 5.5 5.5 0 0 0 0 11z"/><path fill="none" stroke="#fff" stroke-miterlimit="50" stroke-width="6" d="M13 37a5.5 5.5 0 1 0 0-11 5.5 5.5 0 0 0 0 11z" clip-path="url(&quot;#bhi9b&quot;)"/><path fill="none" stroke="#13ce67" stroke-miterlimit="50" stroke-width="2" d="M13 37a5.5 5.5 0 1 0 0-11 5.5 5.5 0 0 0 0 11z"/></g><g clip-path="url(#bhi9a)"><path fill="#fff" d="M32.5 25h11v11h-11z"/><path fill="none" stroke="#fff" stroke-miterlimit="50" stroke-width="6" d="M32.5 25v0h11v11h-11v0z" clip-path="url(&quot;#bhi9c&quot;)"/><path fill="none" stroke="#13ce67" stroke-miterlimit="50" stroke-width="2" d="M32.5 25v0h11v11h-11v0z"/></g><g clip-path="url(#bhi9a)"><path fill="#fff" d="M25 5l6 11H19z"/><path fill="none" stroke="#fff" stroke-miterlimit="50" stroke-width="6" d="M25 5v0l6 11v0H19v0z" clip-path="url(&quot;#bhi9d&quot;)"/><path fill="none" stroke="#13ce67" stroke-miterlimit="50" stroke-width="2" d="M25 5v0l6 11v0H19v0z"/></g></g></g></svg>