<svg xmlns="http://www.w3.org/2000/svg" width="50" height="50" viewBox="0 0 50 50"><defs><clipPath id="devzb"><path fill="#fff" d="M14.116 43V8h21.768v35zm19.297-13.331c0-3.354-1.87-5.225-6.214-6.14l-2.605-.553c-2.53-.539-3.563-1.304-3.563-2.636 0-1.646 1.497-2.694 3.759-2.694 2.185 0 3.774 1.136 3.983 2.844h4.253c-.117-3.322-2.647-5.75-6.396-6.358V10h-3.834v4.138c-3.86.62-6.302 3.084-6.302 6.591 0 3.295 1.93 5.346 5.87 6.17l2.815.598c2.65.57 3.728 1.363 3.728 2.741 0 1.631-1.662 2.77-4.014 2.77-2.545 0-4.312-1.124-4.521-2.875H16c.144 3.519 2.714 5.893 6.796 6.438v4.096h3.834v-4.108c4.243-.58 6.785-3.091 6.783-6.89z"/></clipPath><clipPath id="devza"><path d="M25 50c13.807 0 25-11.193 25-25S38.807 0 25 0 0 11.193 0 25s11.193 25 25 25z"/></clipPath></defs><g><g><g><path fill="#fff" d="M25 50c13.807 0 25-11.193 25-25S38.807 0 25 0 0 11.193 0 25s11.193 25 25 25z"/></g><g clip-path="url(#devza)"><path fill="none" stroke="#13ce67" stroke-miterlimit="50" stroke-width="2" d="M5 6l45 44"/></g><g clip-path="url(#devza)"><path fill="#fff" d="M26.63 36.56v4.107h-3.834V36.57c-4.082-.545-6.652-2.92-6.796-6.438h4.372c.209 1.751 1.976 2.875 4.521 2.875 2.352 0 4.014-1.139 4.014-2.77 0-1.378-1.077-2.172-3.728-2.74l-2.816-.599c-3.938-.824-5.869-2.875-5.869-6.17 0-3.507 2.442-5.972 6.302-6.59V10h3.834v4.132c3.749.608 6.279 3.036 6.396 6.358h-4.253c-.21-1.708-1.798-2.844-3.983-2.844-2.262 0-3.759 1.048-3.759 2.694 0 1.332 1.033 2.097 3.563 2.636l2.605.554c4.343.914 6.214 2.785 6.214 6.139.002 3.799-2.54 6.31-6.783 6.89z"/><path fill="none" stroke="#13ce67" stroke-miterlimit="50" stroke-width="4" d="M26.63 36.56v4.107h-3.834v0-4.096c-4.082-.545-6.652-2.92-6.796-6.438h4.372c.209 1.751 1.976 2.875 4.521 2.875 2.352 0 4.014-1.139 4.014-2.77 0-1.378-1.077-2.172-3.728-2.74l-2.816-.599c-3.938-.824-5.869-2.875-5.869-6.17 0-3.507 2.442-5.972 6.302-6.59V10v0h3.834v4.132c3.749.608 6.279 3.036 6.396 6.358h-4.253c-.21-1.708-1.798-2.844-3.983-2.844-2.262 0-3.759 1.048-3.759 2.694 0 1.332 1.033 2.097 3.563 2.636l2.605.554c4.343.914 6.214 2.785 6.214 6.139.002 3.799-2.54 6.31-6.783 6.89z" clip-path="url(&quot;#devzb&quot;)"/></g></g></g></svg>