<svg xmlns="http://www.w3.org/2000/svg" width="277" height="47" viewBox="0 0 277 47"><g><g><g><path fill="#fff" d="M55.652 31.667c0-4.46.013-8.919-.016-13.377-.004-.602.18-.712.728-.702 1.824.033 3.65.026 5.474.003.44-.006.612.063.611.57-.017 9.002-.015 18.004-.004 27.007 0 .421-.08.58-.542.574a196.248 196.248 0 0 0-5.725 0c-.467.007-.537-.156-.535-.572.014-4.501.009-9.002.009-13.503m131.057-10.28c.88-1.433 1.955-2.586 3.462-3.311 1.442-.694 2.968-.812 4.532-.777 1.115.026 1.115.005 1.115 1.113 0 1.64-.024 3.282.014 4.922.012.522-.163.62-.633.605-1.362-.044-2.726-.04-4.046.383-2.493.802-3.71 2.656-4.18 5.117-.169.889-.224 1.79-.222 2.695.004 4.334-.005 8.668.011 13.002.002.448-.073.617-.573.608a206.152 206.152 0 0 0-5.727-.005c-.402.004-.534-.093-.533-.519.012-9.046.012-18.093 0-27.14 0-.399.121-.491.5-.488 1.93.018 3.86.018 5.79 0 .379-.003.51.089.5.489-.028 1.101-.01 2.204-.01 3.306m-145.425-.022c.599-.83 1.162-1.651 1.94-2.303 1.374-1.148 2.972-1.685 4.738-1.753.67-.026 1.343.012 2.013-.012.332-.011.428.093.425.426a362.766 362.766 0 0 0 0 5.806c.004.356-.138.41-.442.406-1.09-.01-2.185-.071-3.26.154-2.976.623-4.66 2.402-5.161 5.417a15.58 15.58 0 0 0-.21 2.57c.002 4.334-.008 8.668.013 13.002.002.51-.105.676-.644.666a189.028 189.028 0 0 0-5.664-.005c-.409.005-.528-.105-.528-.523.012-9.026.011-18.051.002-27.077 0-.382.055-.555.502-.55 1.93.026 3.86.022 5.79.003.386-.004.505.1.495.493-.026 1.093-.009 2.187-.009 3.28m120.63-13.866c5.099 0 10.197.008 15.296-.012.508-.002.622.146.614.63-.027 1.83-.032 3.661.003 5.491.01.516-.156.612-.63.61-3.734-.02-7.47.001-11.204-.025-.547-.004-.69.118-.688.682.02 10.058.01 20.116.026 30.174 0 .53-.088.711-.67.698-1.929-.044-3.86-.035-5.79-.004-.499.008-.615-.131-.615-.622.015-10.058.006-20.115.026-30.173.001-.598-.124-.763-.742-.758-3.672.034-7.344.004-11.015.031-.546.004-.647-.161-.638-.666a123.11 123.11 0 0 0-.004-5.365c-.016-.61.192-.705.736-.702 5.098.02 10.197.011 15.295.011m56.887 34.397c-.565.718-1.016 1.315-1.554 1.839-1.41 1.374-3.09 2.109-5.046 2.269-2.039.167-4.024-.023-5.88-.925-2.941-1.43-4.528-3.88-5.11-7.044-.187-1.015-.252-2.04-.25-3.073.01-5.576.012-11.151-.009-16.726-.002-.536.153-.657.664-.648 1.846.032 3.693.034 5.538-.001.515-.01.608.155.607.63-.017 5.47-.01 10.94-.012 16.41 0 .655.083 1.297.222 1.936.557 2.562 2.666 3.547 4.924 3.443 2.821-.13 4.829-2.285 5.439-5.4.207-1.055.29-2.12.289-3.194-.004-4.397.006-8.795-.013-13.192-.002-.489.113-.64.62-.632 1.888.032 3.777.024 5.665.004.42-.005.576.083.575.546-.013 9.025-.012 18.051-.002 27.077 0 .417-.119.53-.532.525a210.733 210.733 0 0 0-5.602.002c-.46.006-.554-.151-.543-.573.028-1.03.01-2.06.01-3.273M77.338 21.516c2.808-6.314 12.829-5.457 15.134.104.063-.055.132-.092.166-.15 1.566-2.676 3.923-4.053 6.978-4.293 2.839-.223 5.523.185 7.827 2.018 1.876 1.493 2.79 3.52 3.093 5.856.112.856.128 1.718.127 2.581-.006 5.809-.012 11.617.011 17.425.003.563-.137.699-.69.688a140.395 140.395 0 0 0-5.54-.001c-.517.01-.61-.161-.608-.636.015-5.682.013-11.364.004-17.046a8.04 8.04 0 0 0-.133-1.504c-.521-2.695-2.564-3.534-5.054-3.236-2.587.31-4.16 2.05-4.48 4.754a17.962 17.962 0 0 0-.122 2.139c.006 4.966-.003 9.933.014 14.9.001.476-.094.638-.607.629a154.616 154.616 0 0 0-5.603 0c-.506.008-.612-.142-.611-.626.017-5.724.024-11.448.002-17.172-.006-1.658-.385-3.195-1.973-4.098-2.73-1.554-6.32-.182-7.34 2.786-.396 1.148-.494 2.34-.496 3.54-.007 4.945-.016 9.89.014 14.836.004.633-.177.748-.762.735-1.824-.04-3.65-.027-5.476-.006-.418.005-.575-.076-.574-.542.014-9.028.013-18.056.001-27.084 0-.422.124-.526.53-.521 1.889.02 3.778.024 5.666-.002.44-.007.518.15.51.541-.023 1.071-.008 2.143-.008 3.385m165.289 24.86c-.821-.293-1.7-.28-2.539-.498-2.24-.585-4.32-1.469-5.987-3.138-1.54-1.543-2.203-3.476-2.43-5.6-.044-.412.102-.485.477-.481 1.951.018 3.902.01 5.853.007.255 0 .487-.031.562.324.433 2.057 1.877 3.04 3.782 3.474 1.79.409 3.577.402 5.315-.274.84-.326 1.457-.885 1.69-1.805.309-1.212-.128-2.14-1.288-2.573-1.458-.545-2.992-.783-4.516-1.056-1.853-.332-3.713-.658-5.496-1.272-2.39-.823-4.463-2.139-5.153-4.731-1.077-4.043-.192-8.476 4.755-10.474 4.231-1.708 8.517-1.689 12.673.276 3.167 1.497 4.773 4.155 5.125 7.615.037.369-.035.51-.45.504-1.91-.024-3.818-.013-5.727-.007-.277.001-.438-.015-.492-.376-.282-1.86-1.402-2.942-3.214-3.324-1.483-.313-2.962-.297-4.4.207-1.448.506-2.225 1.819-1.964 3.181.154.805.662 1.29 1.382 1.58 1.41.57 2.904.786 4.393 1.012 1.945.296 3.883.626 5.784 1.143 1.472.4 2.73 1.168 3.788 2.255 1.083 1.113 1.472 2.512 1.549 4.021.262 5.174-2.61 7.822-6.822 9.235-1.134.381-2.306.61-3.508.65-.1.003-.214-.015-.246.125zm-106.964-17.65c.528.01.629-.172.585-.636-.14-1.483-.69-2.74-1.842-3.728-2.868-2.461-9.44-1.816-10.648 3.566-.176.786-.185.784.588.784h5.596c1.907 0 3.815-.022 5.721.015zm-6.732 17.65c-.52-.287-1.115-.235-1.67-.355-5.453-1.183-9.366-5.384-10.155-10.924-.475-3.335-.428-6.642.891-9.788 2.028-4.835 5.703-7.551 10.908-8.102 3.63-.384 6.963.418 9.776 2.852 2.21 1.912 3.416 4.41 3.97 7.255.389 2 .253 4.021.293 6.036.009.449-.257.385-.529.385h-7.929c-3.482 0-6.964.005-10.446-.007-.444-.002-.65.014-.58.596.45 3.748 3.027 6.062 6.959 6.112 2.435.03 4.563-.637 5.835-2.95.147-.267.366-.23.591-.23 1.783-.002 3.566.016 5.349-.012.514-.008.527.171.407.584-1.212 4.163-4.086 6.616-8.084 7.902-.916.295-1.86.497-2.832.521-.095.003-.217-.03-.236.125zM7.126 24.586c-.004.353.089.465.45.458 1.174-.022 2.348.01 3.521-.012 1.884-.035 3.772.119 5.652-.096 2.006-.23 3.562-1.157 4.267-3.114.747-2.072.61-4.103-.805-5.892-1.103-1.393-2.693-1.695-4.342-1.714-2.724-.033-5.45.005-8.174-.022-.506-.005-.577.179-.57.618.023 1.597.009 3.194.009 4.792 0 1.66.01 3.32-.008 4.981zM0 7.484c5.241.005 10.483.003 15.724.017 2.213.006 4.385.263 6.423 1.214 4.007 1.87 6.035 5.112 6.408 9.44.222 2.586-.23 5.075-1.518 7.354-1.969 3.483-5.056 5.32-8.922 5.955-1.14.187-2.291.223-3.444.221-2.307-.003-4.615.013-6.921-.012-.482-.005-.631.107-.629.615.022 4.227-.005 8.455.031 12.682.006.67-.196.783-.803.774-2.116-.033-4.233-.005-6.349 0zm263.905 23.573c0-2.252-.012-4.504.011-6.755.005-.439-.1-.565-.547-.555-1.364.032-2.728-.002-4.092.02-.384.006-.503-.104-.499-.494.02-1.726.023-3.452-.002-5.177-.007-.449.173-.51.553-.504 1.343.02 2.687-.01 4.029.018.43.01.566-.09.559-.544-.029-1.746-.002-3.493-.02-5.24-.003-.385.07-.58.497-.69a201 201 0 0 0 5.748-1.574c.496-.144.58-.027.574.46-.025 2.356 0 4.713-.021 7.07-.004.416.111.524.52.517 1.531-.024 3.063.007 4.595-.02.424-.007.53.126.526.533-.02 1.704-.02 3.409 0 5.113.004.405-.098.542-.525.534-1.531-.027-3.064.004-4.595-.02-.406-.006-.523.097-.521.516.016 4.103.001 8.206.013 12.31.007 2.077 1.037 3.091 3.107 3.106.88.007 1.763.017 2.643-.006.366-.01.515.06.51.475-.025 1.704-.01 3.409-.012 5.113 0 .226.053.48-.32.468-2.282-.072-4.574.176-6.844-.222-3.354-.589-5.087-2.385-5.642-5.758-.379-2.302-.192-4.617-.243-6.927-.013-.589-.002-1.178-.002-1.767"/></g><g><path fill="#13ce67" d="M66.863 5.852c-.4-.05-.658.158-.924.3-3.124 1.655-5.425 4.178-7.353 7.081-.24.361-.365.8-.542 1.202-.074.168-.193.298-.38.255-.178-.04-.18-.217-.153-.364.835-4.58 2.123-8.945 6.01-11.967 2-1.554 4.344-2.22 6.851-2.33 1.87-.083 3.73.006 5.566.395.234.05.546.04.612.346.06.275-.204.386-.378.528-1.988 1.622-3.264 3.712-3.602 6.235-.658 4.907-4.043 7.678-8.568 8.519-1.406.26-2.825.347-4.253.166-1.229-.157-1.465-.55-.872-1.673 1.796-3.403 4.193-6.273 7.503-8.306.125-.077.25-.154.372-.236.031-.021.048-.064.11-.15"/></g></g></g></svg>