<svg xmlns="http://www.w3.org/2000/svg" width="50" height="50" viewBox="0 0 50 50"><defs><clipPath id="hv6pb"><path fill="#fff" d="M13.043 36.018V7.982h27.914v28.036zM38.245 10.59c-.175.003-4.32.098-8.342 2.1a14.617 14.617 0 0 0-3.823 2.725c-3.299 3.298-9.77 11.513-10.043 11.862l-.066.084-.032.103c-.093.303-.213 1.476 2.167 3.857 1.82 1.82 2.942 2.203 3.562 2.203.14 0 .237-.021.293-.038l.103-.032.084-.067c.352-.277 8.655-6.84 11.86-10.043a14.56 14.56 0 0 0 2.719-3.822c1.991-4.013 2.1-8.168 2.105-8.343l.012-.599zm-8.067 10.962a2.308 2.308 0 1 1 0-4.616 2.308 2.308 0 0 1 0 4.616z"/></clipPath><clipPath id="hv6pa"><path d="M25 50c13.807 0 25-11.193 25-25S38.807 0 25 0 0 11.193 0 25s11.193 25 25 25z"/></clipPath></defs><g><g><g><path fill="#fff" d="M25 50c13.807 0 25-11.193 25-25S38.807 0 25 0 0 11.193 0 25s11.193 25 25 25z"/></g><g clip-path="url(#hv6pa)"><path fill="none" stroke="#13ce67" stroke-miterlimit="50" stroke-width="2" d="M15.736 29.81c-.322.248-4.676 3.593-4.676 7.919v.735h.734c4.448 0 7.602-4.262 7.92-4.695"/></g><g clip-path="url(#hv6pa)"><path fill="none" stroke="#13ce67" stroke-miterlimit="50" stroke-width="2" d="M21.168 20.55v0h-6.416a.577.577 0 0 0-.443.208l-2.885 3.461a.578.578 0 0 0 .303.93l5.276 2.568v0"/></g><g clip-path="url(#hv6pa)" transform="rotate(-97 26 33.5)"><path fill="none" stroke="#13ce67" stroke-miterlimit="50" stroke-width="2" d="M30.588 37.127v0h-6.416a.577.577 0 0 1-.443-.207l-2.885-3.462a.578.578 0 0 1 .303-.929l5.276-2.569v0"/></g><g clip-path="url(#hv6pa)"><path fill="#fff" d="M38.844 10.58l-.012.6c-.004.174-.114 4.329-2.105 8.342a14.56 14.56 0 0 1-2.719 3.822c-3.205 3.203-11.508 9.766-11.86 10.043l-.084.067-.103.032a.996.996 0 0 1-.293.038c-.62 0-1.741-.383-3.562-2.203-2.38-2.381-2.26-3.554-2.167-3.857l.032-.103.066-.084c.274-.349 6.744-8.564 10.043-11.862 1.084-1.083 2.37-2 3.823-2.725 4.021-2.002 8.167-2.097 8.342-2.1zm-6.358 8.664a2.308 2.308 0 1 0-4.616 0 2.308 2.308 0 0 0 4.616 0z"/><path fill="none" stroke="#13ce67" stroke-miterlimit="50" stroke-width="4" d="M38.844 10.58l-.012.6c-.004.174-.114 4.329-2.105 8.342a14.56 14.56 0 0 1-2.719 3.822c-3.205 3.203-11.508 9.766-11.86 10.043l-.084.067-.103.032a.996.996 0 0 1-.293.038c-.62 0-1.741-.383-3.562-2.203-2.38-2.381-2.26-3.554-2.167-3.857l.032-.103.066-.084c.274-.349 6.744-8.564 10.043-11.862 1.084-1.083 2.37-2 3.823-2.725 4.021-2.002 8.167-2.097 8.342-2.1zm-6.358 8.664a2.308 2.308 0 1 0-4.616 0 2.308 2.308 0 0 0 4.616 0z" clip-path="url(&quot;#hv6pb&quot;)"/></g></g></g></svg>