<svg xmlns="http://www.w3.org/2000/svg" viewBox="0 0 1321.45 616.63"><defs><style>.cls-1{fill:#20c178;}</style></defs><title>StartEngineGreen</title><g id="Layer_2" data-name="Layer 2"><g id="Layer_1-2" data-name="Layer 1"><g id="Page-1"><g id="Bitmap"><g id="Group"><path id="Shape" class="cls-1" d="M1110.25,0c19.24,0,38.49.08,57.71,0,.06,75,.33,150-.14,224.92-19.11.16-38.22.12-57.32.06-.59-75-.23-150-.25-225Z"/><path id="Shape-2" data-name="Shape" class="cls-1" d="M474.13,80.3c10.1-.31,20.36-1.11,30.34.68,7.68,3.85,15.53,11.1,15.3,20.38a244.86,244.86,0,0,1-.25,32.57c9.48.59,19,.14,28.45.45.88,9.51,0,21-8.89,26.71-5.45,4.77-12.89,4.4-19.6,5.31,1.56,29.79.27,59.67.72,89.5.59,8.13-3.48,19.58,6.25,23.66,6.94,2,14.56.43,21.75,1-.47,11.55,1.07,23.25-1.07,34.68-16.67,0-33.39.37-50-1.35-6.9-1.23-14.07-4.49-17.7-10.77-5.72-8.71-5.8-19.56-5.72-29.6.33-64.42-.53-128.85.43-193.25Z"/><path id="Shape-3" data-name="Shape" class="cls-1" d="M852.28,80c10.3.23,20.81-1.09,30.95,1.19,8.42,4,15.2,12.72,14.83,22.35.18,10.28-.25,20.55.27,30.81,9.2-.06,18.4-.23,27.61,0,.84,8.09.37,16.82-4.65,23.58-6,6.21-14.79,8.26-23.13,8.62-.25,32.41,0,64.85-.14,97.26.23,4.69-.57,10.41,3.56,13.75,6.82,6.15,17.45.29,24.73,4.2.72,10.9,0,21.86.33,32.8-16.16,1.52-32.45.7-48.61-.37-7.89-.31-16.08-4.06-20.1-11.1a38.76,38.76,0,0,1-5.7-21.76c0-67.11-.08-134.2.06-201.3Z"/><path id="Combined-Shape" class="cls-1" d="M1319.22,251.54c-5.91-39.11-25.58-75.81-54-103.17-21.92-21.59-49.84-36.73-79.52-44.53-.12,17.1-.78,34.29.25,51.35,35.3,13,64.28,41.5,77.51,76.76,13.07,34.41,11.12,74.2-5.53,107-14,28.21-38.92,50.62-68,62.44-33,13.46-71.57,12.66-104.08-1.86-38.41-16.69-67-52.95-75.16-93.92-4.83-27.92-2.44-57.69,10.32-83.31,14.48-30.71,41.3-56,73.68-66.88.25-17.13-.49-34.27.47-51.38-15.79,2.93-30.38,10.06-44.51,17.39-32.61,19.36-60.23,48.2-75.38,83.19-28.72,60-19,135.85,23.29,187.05,36.87,47.65,99.17,74.18,159.1,67.78,48.22-4.47,94.15-29.52,124-67.66,20.82-25.25,33.71-56.68,38.35-89l0,.11A174.94,174.94,0,0,0,1319.22,251.54Z"/><path id="Shape-4" data-name="Shape" class="cls-1" d="M311.71,142.61c15-12.84,35.38-16.86,54.61-17.25,19.52,0,40.05,3.73,55.92,15.81,13.32,10.39,20.81,26.94,21.82,43.65-14.34-1.7-31.1,3.77-43.37-6-5.9-8.21-13.81-16.08-24.44-17-9.69-.27-20.08-1.72-29.05,2.77-7,3.07-9.28,12.56-6.29,19.09,5.47,5.06,12.58,8,19.62,10.14,23.27,6.82,48.3,9.16,69.36,22.16,12.37,6.53,19.64,20.42,20,34.15,1,15-3,31.14-13.93,42-11.33,13-28.74,18.42-45.25,20.91-24.77,2.58-51.66,3-74.11-9.42-18.17-10.08-28.27-31.2-27-51.66,15,.08,30-.66,44.9.45,1.39,8.09,4.42,17.17,12.13,21.28,13.27,6.9,29.29,7,43.49,3.24,7.6-1.9,14.77-8.75,13.27-17.19.49-5.72-4.83-9.2-9.2-11.55-9.3-5-19.77-6.94-30.07-8.71-17.43-4.47-35.46-8.48-50.86-18.23a44.28,44.28,0,0,1-19.52-39.45c-.31-15,7.8-28.8,18-39.15Z"/><path class="cls-1" d="M711.82,179.73c.45-11.39-2-23.84-10.1-32.32-11.18-13.85-29.37-18.62-46.25-20.92-20.61-2-42.63-2.32-61.47,7.54-15.86,7.78-28.29,23.25-30.19,41.07,14.91-.35,29.83.18,44.74-.59,2.52-8.24,11.68-10.78,19.26-12,11.06-.86,22.9-.76,33.14,4,8,3.46,8.71,14.46,4.36,21-10.9,9-25.87,9.59-39.23,11.84-17.47,1.78-35,6.68-49.61,16.63-12.05,8.67-17.58,23.7-17.8,38.18s2.25,30.32,12.58,41.24c12.13,12.6,29.72,18.78,47,18.83,23.23.14,48.43-1.27,67.72-15.79,16.1-11,24.56-30.32,25.44-49.43C712.29,225.94,711.45,202.8,711.82,179.73Zm-50.93,84c-10.1,13.5-28.76,17-44.49,13.7-6.76-1.25-11.78-7.11-13.42-13.56-1.15-8.36-1.05-17.88,4.73-24.64,6.78-5.61,15.69-7.44,24.05-9.38,12.58-2.27,24.75-6.31,36.67-10.88C668.62,234,670.58,250.92,660.89,263.72Z"/><path id="Shape-5" data-name="Shape" class="cls-1" d="M754.26,157.44c19-17.94,46-23.52,71.39-24.13,2.21-.2,6.33-.08,5.7,3.3,0,14.79.41,29.58-.37,44.35-14.56.72-31.46-2.44-43.49,7.87-9,7.8-11.29,20.44-11.41,31.77.16,31.3-.1,62.58.16,93.86-15.55.66-31.12.33-46.68.21-.06-31.28-.12-62.56,0-93.82.45-23.09,7.87-47,24.66-63.42Z"/><path id="Shape-6" data-name="Shape" class="cls-1" d="M1138.47,244.75c19.09-1.82,36.73,15.71,36.32,34.56,0,17.47-15.1,34.05-32.86,34.39-18.23,1.27-35.52-14-36.5-32.28-1.86-18.6,14.3-36.81,33-36.67Z"/><path class="cls-1" d="M167.87,459.9c.94-25.32-1.19-52.32-15.67-74-14.13-22.35-41.52-33-67.19-32.59-22.39-1-46,6.23-61.29,23.21C7.9,392.77,2.56,415.8.1,437.61c-.63,18.85,1.54,38,8.07,55.78,7.66,20.59,24.29,38,45.35,44.84,26.28,8.24,56.52,6,80-9.07,16.12-10.06,26.61-27,31.83-45-13.07-.43-26.22-.72-39.29.1-9.83.86-13.11,12.21-21.65,15.55-12.6,5.88-28.56,5.45-40.31-2.21-11.59-8.52-14.5-23.31-16-36.73C88,459.55,128,461.52,167.87,459.9ZM48,428c1.35-10.86,3.87-22.92,12.84-30.15,14.5-11.21,38.33-10.59,50.58,3.73,5.69,7.64,7.48,17.35,8.19,26.65C95.72,428,71.86,428.37,48,428Z"/><path id="Shape-7" data-name="Shape" class="cls-1" d="M270.64,357.42c18.56,1.29,32.79,4.85,52,18.6,15.63,13,20.51,34.46,20.81,53.9.35,37.69,0,75.38.18,113.06-8.73.12-17.49.39-26.22.12-10.88-.51-20.3-10.57-20.08-21.51-.37-31.14,0-62.33-.16-93.47-.23-8.17-1.41-17.1-7.48-23.11-13.25-13.91-37.9-13.46-50.88.59-5.65,6.66-6.27,15.83-6.55,24.17,0,37.79.1,75.55-.06,113.34-15.81.06-31.63.21-47.42-.14q-.18-54.63,0-109.27c1.11-19.89,4.2-42.18,20.08-56C224.82,359.71,247.25,356.1,270.64,357.42Z"/><path class="cls-1" d="M524.18,443.49c-.16-15.86-.84-32.24-7.23-47-4.49-10.37-16.54-23.57-26.46-29.25-13.42-8.36-34.16-13.45-52.06-13.45-8.9,0-41.22.5-60.33,19.12-18.7,19.83-24.62,48-25.44,74.44.49,19.5,3.2,39.74,13.42,56.76,8.24,13,19,25.2,33.43,31.49,18.23,8.73,40.74,9.55,58.67-.31,8-4.3,13.73-11.51,19.54-18.29.39,12.82.2,26.28-5.78,38-6.82,13.42-21.94,23.37-37.32,21.1-11.2-1.84-22-8-27.92-17.86-16.39-.16-32.76,0-49.16-.06,4.55,19.38,15.81,38.25,33.66,48,16.74,9.36,36.4,11.37,55.23,10.18C467,612.84,488,606.37,504,592.54c15.4-14.63,19.6-36.85,20-57.25C524.34,504.7,524.08,474.08,524.18,443.49ZM478,445.38c0,15.92-1.56,33.78-13.11,45.91-6.47,7.44-16.51,10.82-26.16,10.69-9.81,0-20.71-1.88-27.61-9.51-7.19-7.31-9.65-17.7-11.23-27.47-1.7-19.09-1.56-39.35,7.33-56.84,3.63-8.42,11.92-14.18,20.73-16.1,12.43-2.81,27.06-1.06,36,8.85C474,413.34,478.5,429.54,478,445.38Z"/><path id="Shape-8" data-name="Shape" class="cls-1" d="M697.71,356.51c39.76,0,59.95,16.74,68.66,31.13,8.24,13.73,10.67,30.17,10.63,46q.12,54.69,0,109.35c-13.13-.76-28.56,3.91-39.54-5.61-5.47-4.73-7-12.58-7-19.52q0-46,0-92c-.1-7.4-1.68-15.26-7-20.75-12.13-12.23-33.27-13.91-46.91-3.18-8,5-10.39,15.08-10.75,23.93-.16,39.08.08,78.13-.12,117.21-15.67.14-31.36.23-47-.08-.51-37.1-.14-74.2-.21-111.29,1.15-15.86,3.09-32.75,12.66-46C637.64,376.24,656.89,356.51,697.71,356.51Z"/><path class="cls-1" d="M964,460.21c2.07-26.16-1.27-54.26-16.61-76.28C933,363,906.77,353.15,882.05,353.4c-19.58-.7-40.29,3.87-55.35,17-19.17,15.81-28,41.09-29.09,65.31-1.6,25.54,1.09,52.87,15.94,74.54,11.49,17.84,31.61,29.23,52.56,31.51,15.22,3,30.85.41,45.6-3.73a75.42,75.42,0,0,0,49.9-54.1c-12.76.08-25.54-.51-38.29.25-8.56.06-12.23,9-18.39,13.38-12.56,8.15-29.81,8.3-42.77,1-12.52-8.15-16.61-23.72-17.29-37.82C884.55,460,924.29,461,964,460.21ZM844.85,428.09c.64-10.22,3-21.28,11-28.45,10.14-10.39,26.79-11.35,39.88-6.9,14.44,5.24,19.77,21.53,20.48,35.56C892.39,428,868.61,428.29,844.85,428.09Z"/><path id="Shape-9" data-name="Shape" class="cls-1" d="M552.69,361.68c8.26-.49,16.55-.41,24.83-.27,12.25-.25,23,11.27,22.7,23.35q.18,79.07,0,158.14c-15.79.43-31.61.47-47.42,0-.27-60.41-.1-120.8-.1-181.21Z"/></g></g></g></g></g></svg>